<svg xmlns="http://www.w3.org/2000/svg" width="1156" height="354" viewBox="0 0 1156 354">
<g>
<path d="M 691.51 230.75 C691.82,231.65 695.12,232.00 703.35,232.00 C711.26,232.00 715.07,231.62 715.79,230.75 C716.36,230.06 721.54,214.43 727.31,196.00 C733.08,177.57 740.43,154.09 743.65,143.81 C746.87,133.53 749.87,125.49 750.32,125.94 C750.78,126.38 753.14,133.22 755.58,141.12 C758.01,149.03 763.11,165.62 766.91,178.00 C770.71,190.38 776.05,207.48 778.78,216.00 L 783.74 231.50 L 808.50 231.50 L 815.82 205.50 C819.85,191.20 829.41,157.35 837.07,130.29 C844.73,103.22 851.00,80.60 851.00,80.04 C851.00,79.38 846.37,79.00 838.25,79.00 L 825.50 79.00 L 821.65 93.25 C816.59,111.94 812.52,127.39 805.11,156.00 C797.94,183.70 797.56,185.25 796.70,185.60 C796.62,185.63 796.54,185.65 796.45,185.68 C795.93,185.85 793.96,180.71 792.08,174.25 C790.20,167.79 787.68,159.35 786.48,155.50 C784.47,149.10 779.61,133.22 767.64,94.00 L 763.21 79.50 L 751.79 79.22 L 740.36 78.94 L 735.58 94.22 C732.95,102.62 728.40,116.93 725.47,126.00 C722.54,135.07 719.18,145.88 717.99,150.00 C712.11,170.56 706.72,186.25 705.99,184.92 C705.18,183.45 701.52,169.59 688.40,118.40 C684.18,101.95 680.20,86.47 679.55,84.00 L 678.37 79.50 L 664.29 79.22 L 650.20 78.95 L 650.95 82.22 C651.37,84.03 653.08,90.45 654.77,96.50 C656.45,102.55 660.16,116.05 663.03,126.50 C665.89,136.95 669.73,150.90 671.56,157.50 C673.39,164.10 678.53,183.00 682.98,199.50 C687.43,216.00 691.27,230.06 691.51,230.75 ZM 309.96 231.65 C315.78,233.76 317.92,233.99 329.50,233.76 C342.18,233.51 342.69,233.41 350.23,229.81 C369.20,220.75 379.60,203.58 380.69,179.50 C381.59,159.86 376.32,144.37 365.13,133.72 C354.63,123.72 341.80,119.32 326.00,120.31 C315.68,120.95 309.37,122.80 301.63,127.46 C298.40,129.41 295.59,131.00 295.39,131.00 C295.19,131.00 294.91,118.29 294.77,102.75 L 294.50 74.50 L 269.00 73.87 L 269.00 143.78 C269.00,182.23 268.71,217.81 268.35,222.85 L 267.70 232.00 L 278.82 232.00 C288.78,232.00 290.04,231.80 290.96,230.07 C291.53,229.00 292.00,227.23 292.00,226.12 C292.00,222.92 293.26,222.94 298.50,226.21 C301.21,227.89 306.37,230.34 309.96,231.65 ZM 440.00 232.41 C448.72,234.72 467.66,234.47 475.18,231.94 C501.25,223.16 515.11,204.17 515.26,177.00 C515.36,160.20 510.30,147.21 499.50,136.47 C482.79,119.86 452.87,115.13 430.20,125.51 C408.51,135.44 396.13,159.92 399.84,185.55 C401.45,196.75 403.95,203.19 410.01,211.83 C417.35,222.27 427.15,229.00 440.00,232.41 ZM 14.00 230.97 C14.00,231.71 18.22,231.97 27.25,231.78 L 40.50 231.50 L 47.50 213.79 L 54.50 196.07 L 87.30 196.04 L 120.10 196.00 L 121.39 199.25 C122.10,201.04 125.31,209.14 128.52,217.25 L 134.36 232.00 L 148.18 232.00 C157.66,232.00 162.00,231.65 162.00,230.89 C162.00,229.94 152.10,205.90 125.40,142.00 C122.53,135.12 115.83,119.38 110.51,107.00 C105.19,94.62 100.38,83.26 99.82,81.75 L 98.80 79.00 L 87.15 79.01 L 75.50 79.02 L 70.07 92.26 C67.08,99.54 61.31,113.60 57.25,123.50 C53.19,133.40 43.42,157.48 35.55,177.00 C27.68,196.52 19.61,216.41 17.62,221.19 C15.63,225.97 14.00,230.38 14.00,230.97 ZM 1073.50 233.32 C1078.83,234.51 1099.76,233.91 1105.94,232.38 C1113.27,230.57 1127.06,224.23 1131.20,220.76 L 1133.90 218.50 L 1128.91 210.75 C1126.16,206.49 1123.70,203.00 1123.44,203.00 C1123.18,203.00 1120.61,204.55 1117.73,206.44 C1106.32,213.93 1089.21,216.47 1076.73,212.53 C1066.77,209.39 1058.39,199.95 1056.47,189.71 L 1055.78 186.02 L 1096.64 185.76 L 1137.50 185.50 L 1137.41 174.00 C1137.31,161.14 1135.71,154.05 1130.79,144.78 C1118.63,121.87 1083.87,112.94 1057.89,126.06 C1049.69,130.20 1039.27,140.55 1035.21,148.59 C1025.06,168.69 1026.41,193.36 1038.64,211.30 C1046.53,222.87 1057.35,229.71 1073.50,233.32 ZM 939.22 231.98 C945.42,233.70 948.87,233.95 962.50,233.67 C977.82,233.36 978.85,233.20 986.79,230.08 C997.61,225.83 1005.95,218.42 1008.95,210.40 C1011.19,204.41 1011.65,194.88 1009.98,188.88 C1008.45,183.35 1001.77,176.47 994.68,173.11 C987.48,169.69 985.20,169.05 966.39,165.08 C950.39,161.71 945.99,159.95 943.65,155.98 C941.31,152.03 941.60,148.63 944.58,145.09 C951.54,136.81 973.61,137.04 990.55,145.56 C991.09,145.83 991.58,146.09 992.04,146.32 C994.67,147.67 996.13,148.41 997.34,148.13 C999.05,147.72 1000.28,145.27 1003.66,139.55 C1003.81,139.29 1003.96,139.05 1004.10,138.81 C1005.57,136.33 1006.44,134.87 1006.18,133.64 C1005.80,131.78 1002.83,130.45 995.50,126.89 C972.58,115.73 939.47,118.48 925.23,132.72 C919.13,138.82 916.64,144.82 916.59,153.50 C916.54,162.14 918.18,167.09 922.81,172.21 C928.60,178.63 936.91,182.09 956.00,186.05 C978.46,190.71 985.00,194.09 985.00,201.05 C985.00,209.77 975.72,215.00 960.28,215.00 C949.71,215.00 941.90,213.06 931.07,207.75 C925.28,204.90 922.50,203.99 922.22,204.84 C921.99,205.52 920.81,207.29 919.59,208.79 C918.37,210.28 916.30,213.26 915.00,215.42 L 912.63 219.33 L 915.98 222.12 C919.79,225.31 928.60,229.04 939.22,231.98 ZM 179.00 121.94 L 179.00 232.06 L 204.50 231.50 L 205.50 164.50 L 208.92 158.20 C214.59,147.74 222.33,143.71 237.00,143.58 L 246.50 143.50 L 248.16 133.00 C249.19,126.52 249.47,122.13 248.89,121.53 C248.38,121.00 244.84,120.39 241.02,120.17 C228.01,119.44 214.77,125.58 207.69,135.64 C205.94,138.14 204.38,139.58 204.24,138.84 C204.09,138.10 203.64,134.12 203.24,130.00 L 202.50 122.50 L 190.75 122.22 ZM 541.00 122.00 L 541.00 232.06 L 565.50 231.50 L 566.04 199.00 C566.62,164.02 566.80,162.75 572.41,154.35 C577.70,146.42 587.92,142.47 600.23,143.62 C606.66,144.23 606.99,144.15 607.85,141.88 C609.21,138.26 611.32,121.98 610.53,121.19 C610.15,120.81 605.48,120.50 600.17,120.50 C591.81,120.50 589.74,120.86 584.88,123.14 C577.94,126.39 571.74,131.88 568.19,137.92 L 565.50 142.50 L 565.25 134.50 C565.04,127.75 565.17,124.63 563.68,123.19 C562.40,121.95 559.91,121.97 554.95,121.99 C554.18,122.00 553.36,122.00 552.48,122.00 ZM 335.26 210.79 C323.90,215.68 309.80,213.95 298.75,206.32 L 295.00 203.73 L 295.00 152.24 L 298.51 149.56 C316.80,135.61 341.14,139.35 350.06,157.48 C352.88,163.21 353.37,165.37 353.79,174.01 C354.19,182.49 353.93,185.01 351.98,191.06 C349.17,199.80 342.49,207.68 335.26,210.79 ZM 469.00 211.22 C464.71,213.13 455.89,214.02 450.44,213.10 C436.07,210.67 426.54,195.64 426.61,175.50 C426.65,160.37 432.16,149.81 442.88,144.26 C448.26,141.47 450.21,141.00 456.34,141.00 C474.12,140.98 485.19,151.16 488.15,170.24 C489.12,176.48 489.03,178.78 487.55,185.54 C484.61,198.89 478.88,206.82 469.00,211.22 ZM 879.20 94.29 C887.83,95.12 901.00,92.46 901.00,89.89 C901.00,89.40 901.64,89.00 902.42,89.00 C903.19,89.00 905.08,87.99 906.62,86.75 C921.72,74.56 929.17,57.82 930.67,32.75 L 931.31 22.00 L 928.90 22.00 C927.58,22.00 922.45,22.50 917.50,23.10 C894.69,25.88 875.54,37.39 866.94,53.50 C864.15,58.72 863.67,60.73 863.26,69.03 C862.90,76.33 863.16,79.44 864.38,82.38 L 865.98 86.20 L 874.77 77.35 C883.02,69.03 898.05,55.00 898.70,55.00 C899.74,55.00 898.68,57.97 897.00,59.77 C895.90,60.95 895.00,62.22 895.00,62.60 C895.00,62.97 894.38,63.78 893.61,64.39 C892.85,65.00 889.48,69.32 886.12,74.00 C882.77,78.68 878.62,84.41 876.90,86.74 C873.04,91.99 873.58,93.75 879.20,94.29 ZM 866.00 121.94 L 866.00 232.00 L 878.02 232.00 C890.04,232.00 890.05,232.00 891.03,229.41 C891.65,227.80 891.92,207.11 891.76,174.66 L 891.50 122.50 ZM 110.00 172.51 C110.00,173.79 106.61,174.00 86.39,174.00 C67.90,174.00 62.90,173.73 63.30,172.75 C63.58,172.06 65.47,167.23 67.50,162.00 C69.52,156.77 74.46,144.18 78.46,134.00 C82.46,123.82 85.97,114.82 86.25,114.00 C86.66,112.81 86.93,112.92 87.56,114.50 C88.00,115.60 91.47,124.15 95.26,133.50 C104.84,157.10 110.00,170.76 110.00,172.51 ZM 1112.80 164.92 L 1112.50 167.50 L 1084.25 167.77 L 1056.00 168.03 L 1056.00 165.55 C1056.00,160.84 1060.17,151.83 1064.22,147.78 C1070.07,141.93 1075.94,139.65 1085.00,139.70 C1094.00,139.74 1100.02,142.06 1105.33,147.53 C1109.30,151.62 1113.27,160.86 1112.80,164.92 ZM 1017.35 321.07 C1025.50,324.77 1035.48,323.18 1041.23,317.26 C1045.74,312.61 1047.00,309.40 1047.00,302.50 C1047.00,296.02 1045.97,293.07 1042.53,289.62 C1038.04,285.13 1034.03,283.57 1027.00,283.57 C1014.18,283.58 1007.61,290.13 1007.54,303.00 C1007.49,311.54 1011.13,318.25 1017.35,321.07 ZM 848.79 322.06 C850.28,322.54 854.09,322.81 857.26,322.65 C867.79,322.14 875.97,313.76 875.96,303.50 C875.94,287.82 861.19,279.01 845.76,285.46 C837.31,288.98 833.31,302.81 837.96,312.41 C840.24,317.13 844.08,320.55 848.79,322.06 ZM 797.50 322.13 C799.15,322.57 804.23,322.76 808.79,322.57 C815.91,322.27 817.65,321.82 821.11,319.42 C823.33,317.89 825.85,315.25 826.72,313.57 C828.73,309.70 828.66,302.66 826.60,299.51 C824.49,296.29 818.05,292.72 809.50,290.03 C805.65,288.82 801.71,287.12 800.75,286.26 C798.97,284.66 798.43,280.39 799.77,278.40 C802.30,274.60 811.08,273.94 817.91,277.05 L 822.32 279.05 L 824.66 276.85 C825.95,275.64 827.00,274.29 827.00,273.84 C827.00,273.40 824.64,271.80 821.75,270.29 C817.30,267.96 815.28,267.54 808.50,267.54 C794.98,267.53 789.00,272.30 789.00,283.07 C789.00,287.72 789.38,288.61 792.75,291.92 C795.61,294.74 798.62,296.28 805.41,298.42 C818.68,302.60 822.13,307.19 815.92,312.41 C811.75,315.92 803.68,316.00 796.36,312.59 L 791.23 310.20 L 789.07 313.12 C787.88,314.73 787.18,316.49 787.52,317.03 C788.34,318.36 793.81,321.15 797.50,322.13 ZM 912.38 321.15 C916.66,323.84 925.74,323.30 930.07,320.10 L 933.14 317.83 L 933.69 319.92 C934.10,321.49 935.03,322.00 937.49,322.00 C939.29,322.00 941.18,321.44 941.70,320.75 C942.26,320.02 942.47,312.14 942.21,301.75 L 941.77 284.00 L 933.06 284.00 L 932.78 297.64 C932.51,310.90 932.43,311.34 930.00,313.09 C926.39,315.70 920.94,316.43 918.50,314.64 C916.71,313.32 916.45,311.68 916.00,298.83 L 915.50 284.50 L 907.00 283.89 L 907.00 298.29 C907.00,314.56 907.88,318.32 912.38,321.15 ZM 1057.00 284.00 L 1057.00 322.11 L 1065.50 321.50 L 1066.06 293.86 L 1070.62 291.84 C1075.52,289.68 1079.17,289.96 1082.25,292.73 C1083.76,294.09 1084.00,296.24 1084.00,308.21 L 1084.00 322.11 L 1092.50 321.50 L 1092.75 307.00 C1093.03,290.85 1092.53,288.95 1087.09,285.28 C1082.86,282.43 1076.80,282.30 1070.66,284.93 C1066.88,286.55 1066.07,286.63 1065.61,285.43 C1065.26,284.52 1063.60,284.00 1061.03,284.00 ZM 1106.25 321.03 C1111.08,323.22 1119.32,323.58 1125.08,321.86 C1129.97,320.39 1133.92,316.26 1134.64,311.85 C1135.67,305.48 1130.34,301.51 1116.82,298.58 C1114.09,297.99 1111.00,295.55 1111.00,294.00 C1111.00,290.18 1119.97,288.71 1126.54,291.45 C1129.90,292.85 1130.07,292.82 1131.70,290.33 C1133.30,287.90 1133.29,287.68 1131.56,286.42 C1128.10,283.89 1119.00,282.62 1113.08,283.84 C1103.99,285.72 1099.92,292.07 1103.43,298.87 C1105.54,302.95 1108.21,304.54 1115.50,306.07 C1125.26,308.11 1127.11,310.02 1123.34,314.17 C1121.18,316.56 1113.36,316.62 1108.44,314.27 C1104.94,312.60 1104.76,312.61 1103.41,314.46 C1101.13,317.57 1101.74,318.98 1106.25,321.03 ZM 961.77 321.32 C963.90,322.69 966.00,322.99 971.32,322.67 C979.30,322.19 980.86,321.17 979.20,317.54 C978.15,315.23 977.69,315.08 973.38,315.67 C966.68,316.59 966.00,315.29 966.00,301.56 L 966.00 290.50 L 971.20 290.19 C977.49,289.81 978.00,289.53 978.00,286.49 C978.00,284.28 977.56,284.08 972.25,283.80 L 966.50 283.50 L 965.50 273.50 L 961.30 273.20 L 957.11 272.89 L 956.80 278.20 C956.52,283.15 956.32,283.52 953.75,283.82 C951.48,284.08 951.00,284.62 951.00,286.94 C951.00,289.26 951.52,289.85 954.00,290.35 L 957.00 290.95 L 957.00 302.33 C957.00,315.26 957.90,318.82 961.77,321.32 ZM 886.00 265.89 L 886.00 322.11 L 894.50 321.50 L 894.50 266.50 ZM 861.61 313.93 C853.35,319.04 845.00,313.58 845.00,303.08 C845.00,294.41 850.61,288.88 857.80,290.46 C867.60,292.61 870.20,308.62 861.61,313.93 ZM 1032.03 314.48 C1023.82,318.73 1016.77,313.43 1016.77,303.00 C1016.77,296.35 1019.14,292.34 1023.91,290.91 C1027.24,289.91 1028.36,290.01 1031.64,291.62 C1036.20,293.85 1037.97,296.96 1037.99,302.80 C1038.00,308.22 1035.81,312.53 1032.03,314.48 ZM 988.00 304.64 L 988.00 322.11 L 996.50 321.50 L 996.77 302.75 L 997.04 284.00 L 993.13 284.00 C990.48,284.00 989.02,284.51 988.61,285.58 C988.27,286.45 988.00,295.03 988.00,304.64 ZM 988.33 273.75 C990.25,278.13 998.00,275.50 998.00,270.47 C998.00,267.39 995.73,265.81 991.85,266.18 C989.32,266.43 988.44,267.07 987.96,269.00 C987.62,270.38 987.79,272.51 988.33,273.75 Z" fill="rgb(12,12,11)"/>
<path d="M 914.48 76.39 C912.70,79.47 912.17,81.05 913.01,80.83 C911.06,82.92 908.93,84.89 906.62,86.75 C905.08,87.99 903.19,89.00 902.42,89.00 C901.64,89.00 901.00,89.40 901.00,89.89 C901.00,91.56 895.48,93.26 889.25,94.02 C891.23,92.98 889.28,92.26 884.42,92.37 C879.96,92.47 878.56,92.11 877.42,90.55 C876.46,89.25 875.83,88.95 875.10,89.53 C875.51,88.73 876.12,87.81 876.90,86.74 C878.55,84.51 882.43,79.15 885.70,74.59 C885.21,75.62 885.41,75.78 886.38,75.41 C887.16,75.11 888.03,73.99 888.31,72.93 C888.63,71.71 888.37,71.33 887.84,71.64 C890.56,67.95 892.98,64.90 893.61,64.39 C894.38,63.78 895.00,62.97 895.00,62.60 C895.00,62.22 895.90,60.95 897.00,59.77 C898.68,57.97 899.74,55.00 898.70,55.00 C898.05,55.00 883.02,69.03 874.77,77.35 L 867.86 84.31 C867.95,83.99 868.00,83.60 868.00,83.16 C868.00,82.10 867.23,81.43 866.00,81.43 C864.87,81.43 864.28,81.44 864.14,81.76 C863.49,79.98 863.17,78.03 863.12,75.06 C863.28,78.71 863.79,76.02 864.37,67.50 C864.73,62.10 864.66,59.56 864.17,60.30 C864.68,58.02 865.51,56.19 866.94,53.50 C875.54,37.39 894.69,25.88 917.50,23.10 C921.05,22.67 924.70,22.29 926.97,22.11 C925.59,22.39 925.86,23.17 927.75,24.61 C930.20,26.47 931.00,26.32 931.00,24.00 C931.00,22.61 930.40,22.06 928.77,22.00 C928.82,22.00 928.86,22.00 928.90,22.00 L 931.31 22.00 L 930.67 32.75 C930.15,41.38 928.93,49.02 926.94,55.83 C927.02,54.58 926.71,54.00 925.98,54.00 C924.70,54.00 922.78,58.83 923.55,60.08 C924.11,60.99 924.75,61.19 925.31,60.75 C923.97,64.33 922.40,67.66 920.56,70.77 C920.68,70.30 920.61,70.01 920.29,70.02 C918.69,70.05 917.26,71.62 914.48,76.39 ZM 879.20 94.29 C877.43,94.12 876.16,93.83 875.38,93.35 C876.15,93.72 877.20,93.91 878.45,93.83 C880.36,93.70 882.25,93.91 882.63,94.30 C882.68,94.35 882.74,94.40 882.81,94.45 C881.55,94.45 880.34,94.40 879.20,94.29 ZM 914.50 79.18 C914.50,79.16 914.50,79.13 914.50,79.11 C914.50,78.44 915.46,77.12 916.63,76.19 C916.93,75.96 917.23,75.69 917.52,75.39 C916.57,76.69 915.56,77.96 914.50,79.18 ZM 865.23 84.40 C865.70,85.14 866.23,85.48 866.70,85.48 L 865.98 86.20 Z" fill="rgb(86,145,67)"/>
<path d="M 889.25 94.02 C887.12,94.29 884.91,94.44 882.81,94.45 C882.74,94.40 882.68,94.35 882.63,94.30 C882.25,93.91 880.36,93.70 878.45,93.83 C877.20,93.91 876.15,93.72 875.38,93.35 C874.18,92.61 874.11,91.42 875.10,89.53 C875.83,88.95 876.46,89.25 877.42,90.55 C878.56,92.11 879.96,92.47 884.42,92.37 C889.28,92.26 891.23,92.98 889.25,94.02 ZM 914.48 76.39 C917.26,71.62 918.69,70.05 920.29,70.02 C920.61,70.01 920.68,70.30 920.56,70.77 C919.61,72.36 918.60,73.90 917.52,75.39 C917.23,75.69 916.93,75.96 916.63,76.19 C915.46,77.12 914.50,78.44 914.50,79.11 C914.50,79.13 914.50,79.16 914.50,79.18 C914.01,79.74 913.52,80.29 913.01,80.83 C912.17,81.05 912.70,79.47 914.48,76.39 ZM 926.94 55.83 C926.44,57.52 925.90,59.16 925.31,60.75 C924.75,61.19 924.11,60.99 923.55,60.08 C922.78,58.83 924.70,54.00 925.98,54.00 C926.71,54.00 927.02,54.58 926.94,55.83 ZM 863.26 69.03 C863.46,65.00 863.68,62.45 864.17,60.30 C864.66,59.56 864.73,62.10 864.37,67.50 C863.79,76.02 863.28,78.71 863.12,75.06 C863.09,73.41 863.14,71.45 863.26,69.03 ZM 926.97 22.11 C927.76,22.05 928.38,22.01 928.77,22.00 C930.40,22.06 931.00,22.61 931.00,24.00 C931.00,26.32 930.20,26.47 927.75,24.61 C925.86,23.17 925.59,22.39 926.97,22.11 ZM 865.23 84.40 L 864.38 82.38 C864.30,82.17 864.22,81.97 864.14,81.76 C864.28,81.44 864.87,81.43 866.00,81.43 C867.23,81.43 868.00,82.10 868.00,83.16 C868.00,83.60 867.95,83.99 867.86,84.31 L 866.70 85.48 C866.23,85.48 865.70,85.14 865.23,84.40 ZM 886.12 74.00 C886.70,73.20 887.27,72.41 887.84,71.64 C888.37,71.33 888.63,71.71 888.31,72.93 C888.03,73.99 887.16,75.11 886.38,75.41 C885.41,75.78 885.21,75.62 885.70,74.59 Z" fill="rgb(94,139,79)"/>
<path d="M 797.50 322.13 C793.81,321.15 788.34,318.36 787.52,317.03 C787.18,316.49 787.88,314.73 789.07,313.12 L 791.23 310.20 L 796.36 312.59 C803.68,316.00 811.75,315.92 815.92,312.41 C822.13,307.19 818.68,302.60 805.41,298.42 C798.62,296.28 795.61,294.74 792.75,291.92 C789.38,288.61 789.00,287.72 789.00,283.07 C789.00,272.30 794.98,267.53 808.50,267.54 C815.28,267.54 817.30,267.96 821.75,270.29 C824.64,271.80 827.00,273.40 827.00,273.84 C827.00,274.29 825.95,275.64 824.66,276.85 L 822.32 279.05 L 817.91 277.05 C811.08,273.94 802.30,274.60 799.77,278.40 C798.43,280.39 798.97,284.66 800.75,286.26 C801.71,287.12 805.65,288.82 809.50,290.03 C818.05,292.72 824.49,296.29 826.60,299.51 C828.66,302.66 828.73,309.70 826.72,313.57 C825.85,315.25 823.33,317.89 821.11,319.42 C817.65,321.82 815.91,322.27 808.79,322.57 C804.23,322.76 799.15,322.57 797.50,322.13 ZM 848.79 322.06 C844.08,320.55 840.24,317.13 837.96,312.41 C833.31,302.81 837.31,288.98 845.76,285.46 C861.19,279.01 875.94,287.82 875.96,303.50 C875.97,313.76 867.79,322.14 857.26,322.65 C854.09,322.81 850.28,322.54 848.79,322.06 ZM 861.61 313.93 C870.20,308.62 867.60,292.61 857.80,290.46 C850.61,288.88 845.00,294.41 845.00,303.08 C845.00,313.58 853.35,319.04 861.61,313.93 ZM 912.38 321.15 C907.88,318.32 907.00,314.56 907.00,298.29 L 907.00 283.89 L 911.25 284.19 L 915.50 284.50 L 916.00 298.83 C916.45,311.68 916.71,313.32 918.50,314.64 C920.94,316.43 926.39,315.70 930.00,313.09 C932.43,311.34 932.51,310.90 932.78,297.64 L 933.06 284.00 L 937.41 284.00 L 941.77 284.00 L 942.21 301.75 C942.47,312.14 942.26,320.02 941.70,320.75 C941.18,321.44 939.29,322.00 937.49,322.00 C935.03,322.00 934.10,321.49 933.69,319.92 L 933.14 317.83 L 930.07 320.10 C925.74,323.30 916.66,323.84 912.38,321.15 ZM 961.77 321.32 C957.90,318.82 957.00,315.26 957.00,302.33 L 957.00 290.95 L 954.00 290.35 C951.52,289.85 951.00,289.26 951.00,286.94 C951.00,284.62 951.48,284.08 953.75,283.82 C956.32,283.52 956.52,283.15 956.80,278.20 L 957.11 272.89 L 961.30 273.20 L 965.50 273.50 L 966.00 278.50 L 966.50 283.50 L 972.25 283.80 C977.56,284.08 978.00,284.28 978.00,286.49 C978.00,289.53 977.49,289.81 971.20,290.19 L 966.00 290.50 L 966.00 301.56 C966.00,315.29 966.68,316.59 973.38,315.67 C977.69,315.08 978.15,315.23 979.20,317.54 C980.86,321.17 979.30,322.19 971.32,322.67 C966.00,322.99 963.90,322.69 961.77,321.32 ZM 1017.35 321.07 C1011.13,318.25 1007.49,311.54 1007.54,303.00 C1007.61,290.13 1014.18,283.58 1027.00,283.57 C1034.03,283.57 1038.04,285.13 1042.53,289.62 C1045.97,293.07 1047.00,296.02 1047.00,302.50 C1047.00,309.40 1045.74,312.61 1041.23,317.26 C1035.48,323.18 1025.50,324.77 1017.35,321.07 ZM 1032.03 314.48 C1035.81,312.53 1038.00,308.22 1037.99,302.80 C1037.97,296.96 1036.20,293.85 1031.64,291.62 C1028.36,290.01 1027.24,289.91 1023.91,290.91 C1019.14,292.34 1016.77,296.35 1016.77,303.00 C1016.77,313.43 1023.82,318.73 1032.03,314.48 ZM 1106.25 321.03 C1101.74,318.98 1101.13,317.57 1103.41,314.46 C1104.76,312.61 1104.94,312.60 1108.44,314.27 C1113.36,316.62 1121.18,316.56 1123.34,314.17 C1127.11,310.02 1125.26,308.11 1115.50,306.07 C1108.21,304.54 1105.54,302.95 1103.43,298.87 C1099.92,292.07 1103.99,285.72 1113.08,283.84 C1119.00,282.62 1128.10,283.89 1131.56,286.42 C1133.29,287.68 1133.30,287.90 1131.70,290.33 C1130.07,292.82 1129.90,292.85 1126.54,291.45 C1119.97,288.71 1111.00,290.18 1111.00,294.00 C1111.00,295.55 1114.09,297.99 1116.82,298.58 C1130.34,301.51 1135.67,305.48 1134.64,311.85 C1133.92,316.26 1129.97,320.39 1125.08,321.86 C1119.32,323.58 1111.08,323.22 1106.25,321.03 ZM 886.00 294.00 L 886.00 265.89 L 890.25 266.19 L 894.50 266.50 L 894.50 294.00 L 894.50 321.50 L 890.25 321.81 L 886.00 322.11 L 886.00 294.00 ZM 988.00 304.64 C988.00,295.03 988.27,286.45 988.61,285.58 C989.02,284.51 990.48,284.00 993.13,284.00 L 997.04 284.00 L 996.77 302.75 L 996.50 321.50 L 992.25 321.81 L 988.00 322.11 L 988.00 304.64 ZM 1057.00 303.06 L 1057.00 284.00 L 1061.03 284.00 C1063.60,284.00 1065.26,284.52 1065.61,285.43 C1066.07,286.63 1066.88,286.55 1070.66,284.93 C1076.80,282.30 1082.86,282.43 1087.09,285.28 C1092.53,288.95 1093.03,290.85 1092.75,307.00 L 1092.50 321.50 L 1088.25 321.81 L 1084.00 322.11 L 1084.00 308.21 C1084.00,296.24 1083.76,294.09 1082.25,292.73 C1079.17,289.96 1075.52,289.68 1070.62,291.84 L 1066.06 293.86 L 1065.78 307.68 L 1065.50 321.50 L 1061.25 321.81 L 1057.00 322.11 L 1057.00 303.06 ZM 988.33 273.75 C987.79,272.51 987.62,270.38 987.96,269.00 C988.44,267.07 989.32,266.43 991.85,266.18 C995.73,265.81 998.00,267.39 998.00,270.47 C998.00,275.50 990.25,278.13 988.33,273.75 ZM 309.96 231.65 C306.37,230.34 301.21,227.89 298.50,226.21 C293.26,222.94 292.00,222.92 292.00,226.12 C292.00,227.23 291.53,229.00 290.96,230.07 C290.04,231.80 288.78,232.00 278.82,232.00 L 267.70 232.00 L 268.35 222.85 C268.71,217.81 269.00,182.23 269.00,143.78 L 269.00 73.87 L 281.75 74.19 L 294.50 74.50 L 294.77 102.75 C294.91,118.29 295.19,131.00 295.39,131.00 C295.59,131.00 298.40,129.41 301.63,127.46 C309.37,122.80 315.68,120.95 326.00,120.31 C341.80,119.32 354.63,123.72 365.13,133.72 C376.32,144.37 381.59,159.86 380.69,179.50 C379.60,203.58 369.20,220.75 350.23,229.81 C342.69,233.41 342.18,233.51 329.50,233.76 C317.92,233.99 315.78,233.76 309.96,231.65 ZM 335.26 210.79 C342.49,207.68 349.17,199.80 351.98,191.06 C353.93,185.01 354.19,182.49 353.79,174.01 C353.37,165.37 352.88,163.21 350.06,157.48 C341.14,139.35 316.80,135.61 298.51,149.56 L 295.00 152.24 L 295.00 177.98 L 295.00 203.73 L 298.75 206.32 C309.80,213.95 323.90,215.68 335.26,210.79 ZM 440.00 232.41 C427.15,229.00 417.35,222.27 410.01,211.83 C403.95,203.19 401.45,196.75 399.84,185.55 C396.13,159.92 408.51,135.44 430.20,125.51 C452.87,115.13 482.79,119.86 499.50,136.47 C510.30,147.21 515.36,160.20 515.26,177.00 C515.11,204.17 501.25,223.16 475.18,231.94 C467.66,234.47 448.72,234.72 440.00,232.41 ZM 469.00 211.22 C478.88,206.82 484.61,198.89 487.55,185.54 C489.03,178.78 489.12,176.48 488.15,170.24 C485.19,151.16 474.12,140.98 456.34,141.00 C450.21,141.00 448.26,141.47 442.88,144.26 C432.16,149.81 426.65,160.37 426.61,175.50 C426.54,195.64 436.07,210.67 450.44,213.10 C455.89,214.02 464.71,213.13 469.00,211.22 ZM 939.22 231.98 C928.60,229.04 919.79,225.31 915.98,222.12 L 912.63 219.33 L 915.00 215.42 C916.30,213.26 918.37,210.28 919.59,208.79 C920.81,207.29 921.99,205.52 922.22,204.84 C922.50,203.99 925.28,204.90 931.07,207.75 C941.90,213.06 949.71,215.00 960.28,215.00 C975.72,215.00 985.00,209.77 985.00,201.05 C985.00,194.09 978.46,190.71 956.00,186.05 C936.91,182.09 928.60,178.63 922.81,172.21 C918.18,167.09 916.54,162.14 916.59,153.50 C916.64,144.82 919.13,138.82 925.23,132.72 C939.47,118.48 972.58,115.73 995.50,126.89 C1008.13,133.03 1007.80,132.53 1003.66,139.55 C997.48,150.02 998.49,149.56 990.55,145.56 C973.61,137.04 951.54,136.81 944.58,145.09 C941.60,148.63 941.31,152.03 943.65,155.98 C945.99,159.95 950.39,161.71 966.39,165.08 C985.20,169.05 987.48,169.69 994.68,173.11 C1001.77,176.47 1008.45,183.35 1009.98,188.88 C1011.65,194.88 1011.19,204.41 1008.95,210.40 C1005.95,218.42 997.61,225.83 986.79,230.08 C978.85,233.20 977.82,233.36 962.50,233.67 C948.87,233.95 945.42,233.70 939.22,231.98 ZM 1073.50 233.32 C1057.35,229.71 1046.53,222.87 1038.64,211.30 C1026.41,193.36 1025.06,168.69 1035.21,148.59 C1039.27,140.55 1049.69,130.20 1057.89,126.06 C1083.87,112.94 1118.63,121.87 1130.79,144.78 C1135.71,154.05 1137.31,161.14 1137.41,174.00 L 1137.50 185.50 L 1096.64 185.76 L 1055.78 186.02 L 1056.47 189.71 C1058.39,199.95 1066.77,209.39 1076.73,212.53 C1089.21,216.47 1106.32,213.93 1117.73,206.44 C1120.61,204.55 1123.18,203.00 1123.44,203.00 C1123.70,203.00 1126.16,206.49 1128.91,210.75 L 1133.90 218.50 L 1131.20 220.76 C1127.06,224.23 1113.27,230.57 1105.94,232.38 C1099.76,233.91 1078.83,234.51 1073.50,233.32 ZM 1112.80 164.92 C1113.27,160.86 1109.30,151.62 1105.33,147.53 C1100.02,142.06 1094.00,139.74 1085.00,139.70 C1075.94,139.65 1070.07,141.93 1064.22,147.78 C1060.17,151.83 1056.00,160.84 1056.00,165.55 L 1056.00 168.03 L 1084.25 167.77 L 1112.50 167.50 L 1112.80 164.92 ZM 14.00 230.97 C14.00,230.38 15.63,225.97 17.62,221.19 C19.61,216.41 27.68,196.52 35.55,177.00 C43.42,157.48 53.19,133.40 57.25,123.50 C61.31,113.60 67.08,99.54 70.07,92.26 L 75.50 79.02 L 87.15 79.01 L 98.80 79.00 L 99.82 81.75 C100.38,83.26 105.19,94.62 110.51,107.00 C115.83,119.38 122.53,135.12 125.40,142.00 C152.10,205.90 162.00,229.94 162.00,230.89 C162.00,231.65 157.66,232.00 148.18,232.00 L 134.36 232.00 L 128.52 217.25 C125.31,209.14 122.10,201.04 121.39,199.25 L 120.10 196.00 L 87.30 196.04 L 54.50 196.07 L 47.50 213.79 L 40.50 231.50 L 27.25 231.78 C18.22,231.97 14.00,231.71 14.00,230.97 ZM 110.00 172.51 C110.00,170.76 104.84,157.10 95.26,133.50 C91.47,124.15 88.00,115.60 87.56,114.50 C86.93,112.92 86.66,112.81 86.25,114.00 C85.97,114.82 82.46,123.82 78.46,134.00 C74.46,144.18 69.52,156.77 67.50,162.00 C65.47,167.23 63.58,172.06 63.30,172.75 C62.90,173.73 67.90,174.00 86.39,174.00 C106.61,174.00 110.00,173.79 110.00,172.51 ZM 179.00 177.00 L 179.00 121.94 L 190.75 122.22 L 202.50 122.50 L 203.24 130.00 C203.64,134.12 204.09,138.10 204.24,138.84 C204.38,139.58 205.94,138.14 207.69,135.64 C214.77,125.58 228.01,119.44 241.02,120.17 C244.84,120.39 248.38,121.00 248.89,121.53 C249.47,122.13 249.19,126.52 248.16,133.00 L 246.50 143.50 L 237.00 143.58 C222.33,143.71 214.59,147.74 208.92,158.20 L 205.50 164.50 L 205.00 198.00 L 204.50 231.50 L 191.75 231.78 L 179.00 232.06 L 179.00 177.00 ZM 541.00 177.03 L 541.00 122.00 L 552.48 122.00 C565.80,122.00 564.82,121.05 565.25,134.50 L 565.50 142.50 L 568.19 137.92 C571.74,131.88 577.94,126.39 584.88,123.14 C589.74,120.86 591.81,120.50 600.17,120.50 C605.48,120.50 610.15,120.81 610.53,121.19 C611.32,121.98 609.21,138.26 607.85,141.88 C606.99,144.15 606.66,144.23 600.23,143.62 C587.92,142.47 577.70,146.42 572.41,154.35 C566.80,162.75 566.62,164.02 566.04,199.00 L 565.50 231.50 L 553.25 231.78 L 541.00 232.06 L 541.00 177.03 ZM 691.51 230.75 C691.27,230.06 687.43,216.00 682.98,199.50 C678.53,183.00 673.39,164.10 671.56,157.50 C669.73,150.90 665.89,136.95 663.03,126.50 C660.16,116.05 656.45,102.55 654.77,96.50 C653.08,90.45 651.37,84.03 650.95,82.22 L 650.20 78.95 L 664.29 79.22 L 678.37 79.50 L 679.55 84.00 C680.20,86.47 684.18,101.95 688.40,118.40 C701.52,169.59 705.18,183.45 705.99,184.92 C706.72,186.25 712.11,170.56 717.99,150.00 C719.18,145.88 722.54,135.07 725.47,126.00 C728.40,116.93 732.95,102.62 735.58,94.22 L 740.36 78.94 L 751.79 79.22 L 763.21 79.50 L 767.64 94.00 C779.61,133.22 784.47,149.10 786.48,155.50 C787.68,159.35 790.20,167.79 792.08,174.25 C793.96,180.71 795.93,185.85 796.45,185.68 C797.55,185.32 797.27,186.27 805.11,156.00 C812.52,127.39 816.59,111.94 821.65,93.25 L 825.50 79.00 L 838.25 79.00 C846.37,79.00 851.00,79.38 851.00,80.04 C851.00,80.60 844.73,103.22 837.07,130.29 C829.41,157.35 819.85,191.20 815.82,205.50 L 808.50 231.50 L 796.12 231.50 L 783.74 231.50 L 778.78 216.00 C776.05,207.48 770.71,190.38 766.91,178.00 C763.11,165.62 758.01,149.03 755.58,141.12 C753.14,133.22 750.78,126.38 750.32,125.94 C749.87,125.49 746.87,133.53 743.65,143.81 C740.43,154.09 733.08,177.57 727.31,196.00 C721.54,214.43 716.36,230.06 715.79,230.75 C715.07,231.62 711.26,232.00 703.35,232.00 C695.12,232.00 691.82,231.65 691.51,230.75 ZM 866.00 176.97 L 866.00 121.94 L 878.75 122.22 L 891.50 122.50 L 891.76 174.66 C891.92,207.11 891.65,227.80 891.03,229.41 C890.05,232.00 890.04,232.00 878.02,232.00 L 866.00 232.00 L 866.00 176.97 Z" fill="rgb(252,252,252)"/>
</g>
</svg>